HIERARCHY
ROOT Hips
{
	OFFSET -0.001795 -0.223333 0.028219
	CHANNELS 6 Xposition Yposition Zposition Zrotation Yrotation Xrotation 
	JOINT LeftUpLeg
	{
		OFFSET 0.069520 -0.091406 -0.006815
		CHANNELS 3 Zrotation Yrotation Xrotation
		JOINT LeftLeg
		{
			OFFSET 0.034277 -0.375199 -0.004496
			CHANNELS 3 Zrotation Yrotation Xrotation
			JOINT LeftFoot
			{
				OFFSET -0.013596 -0.397961 -0.043693
				CHANNELS 3 Zrotation Yrotation Xrotation
				JOINT LeftToe
				{
					OFFSET 0.026358 -0.055791 0.119288
					CHANNELS 3 Zrotation Yrotation Xrotation
					End Site
					{
						OFFSET 0.000000 0.000000 0.000000
					}
				}
			}
		}
	}
	JOINT RightUpLeg
	{
		OFFSET -0.067670 -0.090522 -0.004320
		CHANNELS 3 Zrotation Yrotation Xrotation
		JOINT RightLeg
		{
			OFFSET -0.038290 -0.382569 -0.008850
			CHANNELS 3 Zrotation Yrotation Xrotation
			JOINT RightFoot
			{
				OFFSET 0.015774 -0.398415 -0.042312
				CHANNELS 3 Zrotation Yrotation Xrotation
				JOINT RightToe
				{
					OFFSET -0.025372 -0.048144 0.123348
					CHANNELS 3 Zrotation Yrotation Xrotation
					End Site
					{
						OFFSET 0.000000 0.000000 0.000000
					}
				}
			}
		}
	}
	JOINT Spine
	{
		OFFSET -0.002533 0.108963 -0.026696
		CHANNELS 3 Zrotation Yrotation Xrotation
		JOINT Spine1
		{
			OFFSET 0.005487 0.135180 0.001092
			CHANNELS 3 Zrotation Yrotation Xrotation
			JOINT Spine2
			{
				OFFSET 0.001457 0.052922 0.025425
				CHANNELS 3 Zrotation Yrotation Xrotation
				JOINT Neck
				{
					OFFSET -0.002778 0.213870 -0.042857
					CHANNELS 3 Zrotation Yrotation Xrotation
					JOINT Head
					{
						OFFSET 0.005152 0.064970 0.051349
						CHANNELS 3 Zrotation Yrotation Xrotation
						End Site
						{
							OFFSET 0.000000 0.000000 0.000000
						}
					}
				}
				JOINT LeftShoulder
				{
					OFFSET 0.078845 0.121749 -0.034090
					CHANNELS 3 Zrotation Yrotation Xrotation
					JOINT LeftArm
					{
						OFFSET 0.090977 0.030469 -0.008868
						CHANNELS 3 Zrotation Yrotation Xrotation
						JOINT LeftForeArm
						{
							OFFSET 0.259612 -0.012772 -0.027456
							CHANNELS 3 Zrotation Yrotation Xrotation
							JOINT LeftHand
							{
								OFFSET 0.249234 0.008986 -0.001171
								CHANNELS 3 Zrotation Yrotation Xrotation
								End Site
								{
									OFFSET 0.000000 0.000000 0.000000
								}
							}
						}
					}
				}
				JOINT RightShoulder
				{
					OFFSET -0.081759 0.118833 -0.038615
					CHANNELS 3 Zrotation Yrotation Xrotation
					JOINT RightArm
					{
						OFFSET -0.096012 0.032551 -0.009143
						CHANNELS 3 Zrotation Yrotation Xrotation
						JOINT RightForeArm
						{
							OFFSET -0.253742 -0.013329 -0.021401
							CHANNELS 3 Zrotation Yrotation Xrotation
							JOINT RightHand
							{
								OFFSET -0.255298 0.007772 -0.005559
								CHANNELS 3 Zrotation Yrotation Xrotation
								End Site
								{
									OFFSET 0.000000 0.000000 0.000000
								}
							}
						}
					}
				}
			}
		}
	}
}
MOTION
Frames: 13
Frame Time: 0.050000
-0.001990 0.950371 -0.013392 -1.954058 -2.365817 0.375859 9.658903 -0.014423 5.516771 -4.154869 0.463981 -5.873354 6.179374 14.972285 18.418445 0.000000 0.000000 0.000000 -6.923296 0.048911 4.181277 3.657685 -0.414598 -7.299465 -2.271946 -11.415890 20.583630 0.000000 0.000000 0.000000 -6.059982 0.001013 -7.570035 4.689905 -1.125077 -16.047536 1.465973 3.167210 31.494466 3.372494 -0.067956 -26.517505 0.000000 0.000000 0.000000 -24.027770 5.017026 -4.945747 -47.706059 -10.327555 -4.155981 -59.925686 -66.164191 46.288959 0.000000 0.000000 0.000000 7.304217 9.239149 3.756164 29.887298 26.333624 0.923290 -58.006499 54.502330 -27.306695 0.000000 0.000000 0.000000 
-0.002068 0.950129 -0.013827 -1.891237 -2.184592 0.409658 9.571121 -0.017055 5.442064 -4.076859 0.457367 -5.932809 6.101704 14.876248 18.339640 0.000000 0.000000 0.000000 -6.983702 0.047020 4.256198 3.679700 -0.418358 -7.491349 -2.366076 -11.534610 20.592251 0.000000 0.000000 0.000000 -6.250416 -0.011898 -7.676995 4.936469 -1.219261 -15.767937 1.511851 2.632381 31.860434 2.786432 0.161668 -26.136668 0.000000 0.000000 0.000000 -24.471767 5.065326 -4.892502 -47.496903 -10.626850 -4.110968 -64.746855 -66.405136 50.550317 0.000000 0.000000 0.000000 8.751070 8.946950 3.694492 31.807686 24.296331 0.583357 -58.144223 59.255271 -30.311480 0.000000 0.000000 0.000000 
-0.002118 0.949892 -0.014257 -1.885860 -2.183850 0.484626 9.598533 -0.021058 5.360955 -4.130147 0.460603 -5.981768 6.115528 14.890292 18.297502 0.000000 0.000000 0.000000 -7.131669 0.063351 4.114105 3.939244 -0.427068 -7.433187 -2.380222 -11.545099 20.536905 0.000000 0.000000 0.000000 -6.282548 -0.011032 -7.577417 5.271539 -1.348441 -15.465044 1.422964 2.267726 31.951127 2.444713 0.297852 -26.146196 0.000000 0.000000 0.000000 -25.118122 4.893029 -4.762505 -47.083509 -10.789898 -4.068529 -67.776194 -66.484817 53.225849 0.000000 0.000000 0.000000 10.125926 8.620383 3.592244 33.895489 21.588336 0.041559 -60.437401 65.085089 -35.635710 0.000000 0.000000 0.000000 
-0.002211 0.949735 -0.014696 -1.948264 -1.942702 0.677349 9.735610 -0.044013 5.055601 -4.196288 0.461794 -5.956336 6.026537 14.778914 18.199941 0.000000 0.000000 0.000000 -7.015267 0.057452 3.999783 3.905512 -0.429248 -7.572547 -2.507244 -11.713758 20.602182 0.000000 0.000000 0.000000 -6.317634 -0.010509 -7.459246 5.535885 -1.432674 -15.396125 1.484583 1.623636 32.017635 1.844601 0.548448 -25.919184 0.000000 0.000000 0.000000 -25.169926 5.072405 -4.714524 -47.265402 -10.613454 -4.197625 -71.534588 -65.965017 56.146104 0.000000 0.000000 0.000000 11.264901 7.995972 3.298592 36.450290 18.983640 -0.531042 -64.693513 71.599983 -43.556072 0.000000 0.000000 0.000000 
-0.002293 0.949611 -0.015123 -1.966436 -1.763377 0.810274 9.832423 -0.060622 4.741826 -4.287898 0.465684 -5.779616 5.965985 14.700934 18.100104 0.000000 0.000000 0.000000 -7.042179 0.063815 3.821907 4.026694 -0.435781 -7.505796 -2.609899 -11.845454 20.606943 0.000000 0.000000 0.000000 -6.427633 -0.012921 -7.198807 5.921333 -1.557277 -15.326861 1.485893 1.111144 32.061870 1.424038 0.722569 -25.873711 0.000000 0.000000 0.000000 -25.505114 5.403290 -4.840426 -46.942255 -10.351872 -4.312699 -75.260323 -65.049934 58.612828 0.000000 0.000000 0.000000 12.254031 7.384133 2.991359 39.217395 15.701025 -1.418893 -77.367126 78.809290 -60.575586 0.000000 0.000000 0.000000 
-0.002348 0.949441 -0.015456 -1.984861 -1.501452 0.985048 9.917842 -0.079056 4.596990 -4.350900 0.465466 -6.001673 5.846923 14.553049 18.053057 0.000000 0.000000 0.000000 -6.936028 0.056485 3.764546 3.923200 -0.435951 -7.696396 -2.748478 -12.028588 20.672453 0.000000 0.000000 0.000000 -6.443405 -0.010319 -6.964363 6.160265 -1.627186 -15.338064 1.547031 0.474166 32.016802 0.898846 0.947613 -25.825768 0.000000 0.000000 0.000000 -25.076929 5.492730 -4.674926 -47.340999 -10.111891 -4.465242 -77.843322 -64.290129 60.377355 0.000000 0.000000 0.000000 12.956478 6.900179 2.695025 42.556761 12.248848 -2.503687 -111.348893 85.822420 -100.985864 0.000000 0.000000 0.000000 
-0.002355 0.949481 -0.015611 -1.957124 -1.133350 0.951738 9.997827 -0.095422 4.377201 -4.469900 0.469860 -5.721601 5.667947 14.329566 17.923706 0.000000 0.000000 0.000000 -6.827099 0.039878 3.807175 3.730405 -0.433224 -7.607347 -2.942063 -12.274083 20.695563 0.000000 0.000000 0.000000 -6.692020 -0.021167 -6.545976 6.433005 -1.701644 -15.425252 1.651614 0.153102 32.064579 0.463814 1.184206 -25.755041 0.000000 0.000000 0.000000 -24.839540 5.826306 -4.820114 -47.252323 -9.946456 -4.533615 -81.352918 -63.343497 62.582585 0.000000 0.000000 0.000000 13.853875 6.392785 2.451874 45.521844 8.544450 -3.898413 135.058881 85.315075 138.275556 0.000000 0.000000 0.000000 
-0.002307 0.949422 -0.015557 -1.904708 -0.778767 1.032817 9.949286 -0.107274 4.274308 -4.428401 0.462347 -5.835430 5.496478 14.116774 17.857940 0.000000 0.000000 0.000000 -6.814958 0.031791 3.835830 3.654353 -0.435501 -7.696868 -3.123108 -12.510105 20.762058 0.000000 0.000000 0.000000 -6.700403 -0.021514 -6.370673 6.710523 -1.789268 -15.366531 1.564506 0.046943 31.884423 0.255763 1.322694 -25.667087 0.000000 0.000000 0.000000 -24.364815 5.863415 -4.814299 -47.618715 -9.783781 -4.587126 -84.291473 -62.794168 64.652666 0.000000 0.000000 0.000000 14.255795 5.680705 2.122791 48.598375 4.852265 -5.458801 107.766898 78.616050 103.191465 0.000000 0.000000 0.000000 
-0.002318 0.949512 -0.015352 -1.802794 -0.264834 1.018047 9.866995 -0.119671 4.194834 -4.384479 0.453963 -5.856247 5.227035 13.787260 17.788551 0.000000 0.000000 0.000000 -6.776574 0.017706 3.861189 3.464843 -0.432809 -7.523753 -3.399983 -12.861009 20.786538 0.000000 0.000000 0.000000 -6.908782 -0.033232 -6.128516 6.742976 -1.768251 -15.599872 1.790370 -0.152527 31.938990 -0.138443 1.577703 -25.718621 0.000000 0.000000 0.000000 -24.145601 6.169710 -5.011861 -47.869559 -9.761419 -4.603368 -87.132283 -62.346197 66.761562 0.000000 0.000000 0.000000 14.311656 5.110809 1.872742 51.333626 1.442649 -7.092728 96.047343 72.904870 85.167235 0.000000 0.000000 0.000000 
-0.002427 0.949592 -0.015128 -1.842427 0.246065 0.932966 9.881639 -0.135198 4.245662 -4.226026 0.438611 -5.963035 4.966047 13.466218 17.697140 0.000000 0.000000 0.000000 -6.694892 -0.006242 4.020879 3.485358 -0.439230 -7.450490 -3.640335 -13.168419 20.881329 0.000000 0.000000 0.000000 -6.894796 -0.035537 -5.854055 6.871470 -1.789501 -15.742486 1.845225 -0.025514 31.725222 -0.262458 1.717962 -25.484280 0.000000 0.000000 0.000000 -23.958624 6.103265 -5.096766 -48.277070 -10.222595 -4.383534 -90.167198 -62.516436 69.562202 0.000000 0.000000 0.000000 14.467796 4.487814 1.645301 53.585893 -1.855698 -8.732050 90.879056 68.098286 75.200759 0.000000 0.000000 0.000000 
-0.002628 0.949640 -0.015001 -1.864203 0.650303 0.871198 9.908688 -0.148686 4.270929 -4.133996 0.428695 -6.039605 4.757788 13.210195 17.632907 0.000000 0.000000 0.000000 -6.547552 -0.024094 4.018367 3.350641 -0.435045 -7.181802 -3.860003 -13.443238 20.874543 0.000000 0.000000 0.000000 -6.931227 -0.039245 -5.667509 6.867973 -1.764133 -15.926331 1.909178 -0.128346 31.730515 -0.555717 1.916599 -25.473771 0.000000 0.000000 0.000000 -23.961531 6.442497 -5.356996 -48.734987 -11.176324 -4.024416 -93.110534 -62.645205 72.501240 0.000000 0.000000 0.000000 14.526856 4.294758 1.584460 55.009822 -4.266969 -9.999244 90.267099 65.102628 71.590032 0.000000 0.000000 0.000000 
-0.002882 0.949774 -0.015000 -1.868636 0.703066 0.779094 9.906401 -0.148220 4.313886 -4.080423 0.425297 -5.960904 4.722408 13.167409 17.639767 0.000000 0.000000 0.000000 -6.523818 -0.034185 4.155043 3.353759 -0.436372 -7.228762 -3.869834 -13.456533 20.913825 0.000000 0.000000 0.000000 -6.859732 -0.036197 -5.517857 6.875645 -1.751223 -16.093203 1.945598 0.166336 31.685980 -0.556210 1.959209 -25.124019 0.000000 0.000000 0.000000 -23.775957 5.983216 -5.148471 -49.042147 -12.304570 -3.564990 -95.903680 -63.554264 76.093020 0.000000 0.000000 0.000000 14.697480 4.124854 1.563100 55.640097 -5.422513 -10.608806 93.101422 63.706391 73.018218 0.000000 0.000000 0.000000 
-0.003231 0.949760 -0.015140 -1.832052 0.714649 0.765457 9.949366 -0.149994 4.518690 -4.186107 0.429740 -6.315432 4.679122 13.123126 17.749211 0.000000 0.000000 0.000000 -6.517157 -0.038844 4.241149 3.313142 -0.436239 -7.366324 -3.872476 -13.460075 20.919539 0.000000 0.000000 0.000000 -6.834607 -0.039101 -5.687844 6.764652 -1.706812 -16.192375 1.804316 0.009573 31.684838 -0.652655 1.995667 -25.254708 0.000000 0.000000 0.000000 -23.597011 5.955323 -5.050938 -49.498995 -13.476690 -3.124093 -97.618387 -64.522993 79.017868 0.000000 0.000000 0.000000 14.390841 4.088583 1.514622 56.301671 -5.896562 -10.938373 97.842336 63.271145 77.211113 0.000000 0.000000 0.000000 
